<mxfile host="app.diagrams.net" agent="Mozilla/5.0 (Windows NT 10.0; Win64; x64) AppleWebKit/537.36 (KHTML, like Gecko) Chrome/127.0.0.0 Safari/537.36" version="24.7.5">
  <diagram name="Page-1" id="YJBZmGf09T_ugZpruDGn">
    <mxGraphModel dx="1877" dy="565" grid="1" gridSize="10" guides="1" tooltips="1" connect="1" arrows="1" fold="1" page="1" pageScale="1" pageWidth="827" pageHeight="1169" math="0" shadow="0">
      <root>
        <mxCell id="0" />
        <mxCell id="1" parent="0" />
        <mxCell id="8xb7cWls3KUM-lBE9ush-6" style="rounded=0;orthogonalLoop=1;jettySize=auto;html=1;exitX=0.5;exitY=0;exitDx=0;exitDy=0;entryX=0.5;entryY=1;entryDx=0;entryDy=0;endArrow=none;endFill=0;shape=link;" parent="1" source="8xb7cWls3KUM-lBE9ush-42" target="8xb7cWls3KUM-lBE9ush-43" edge="1">
          <mxGeometry relative="1" as="geometry">
            <mxPoint x="-361.94" y="760.75" as="sourcePoint" />
            <mxPoint x="-361.94" y="550.75" as="targetPoint" />
          </mxGeometry>
        </mxCell>
        <mxCell id="8xb7cWls3KUM-lBE9ush-7" style="rounded=0;orthogonalLoop=1;jettySize=auto;html=1;exitX=0.925;exitY=-0.008;exitDx=0;exitDy=0;entryX=0.5;entryY=1;entryDx=0;entryDy=0;endArrow=none;endFill=0;exitPerimeter=0;" parent="1" source="8xb7cWls3KUM-lBE9ush-42" target="8xb7cWls3KUM-lBE9ush-38" edge="1">
          <mxGeometry relative="1" as="geometry">
            <mxPoint x="-183" y="488.90999999999997" as="sourcePoint" />
            <mxPoint x="-243" y="438.90999999999997" as="targetPoint" />
          </mxGeometry>
        </mxCell>
        <mxCell id="8xb7cWls3KUM-lBE9ush-8" style="rounded=0;orthogonalLoop=1;jettySize=auto;html=1;exitX=1;exitY=0.5;exitDx=0;exitDy=0;entryX=0;entryY=0.5;entryDx=0;entryDy=0;endArrow=none;endFill=0;" parent="1" source="8xb7cWls3KUM-lBE9ush-42" target="8xb7cWls3KUM-lBE9ush-28" edge="1">
          <mxGeometry relative="1" as="geometry">
            <mxPoint x="-183" y="518.91" as="sourcePoint" />
          </mxGeometry>
        </mxCell>
        <mxCell id="8xb7cWls3KUM-lBE9ush-9" style="rounded=0;orthogonalLoop=1;jettySize=auto;html=1;exitX=1;exitY=1;exitDx=0;exitDy=0;entryX=0;entryY=0;entryDx=0;entryDy=0;endArrow=none;endFill=0;dashed=1;" parent="1" source="8xb7cWls3KUM-lBE9ush-42" target="8xb7cWls3KUM-lBE9ush-29" edge="1">
          <mxGeometry relative="1" as="geometry">
            <mxPoint x="-183" y="508.90999999999997" as="sourcePoint" />
          </mxGeometry>
        </mxCell>
        <mxCell id="8xb7cWls3KUM-lBE9ush-10" style="rounded=0;orthogonalLoop=1;jettySize=auto;html=1;exitX=1;exitY=0;exitDx=0;exitDy=0;entryX=0.06;entryY=0.794;entryDx=0;entryDy=0;endArrow=none;endFill=0;entryPerimeter=0;" parent="1" source="8xb7cWls3KUM-lBE9ush-42" target="8xb7cWls3KUM-lBE9ush-30" edge="1">
          <mxGeometry relative="1" as="geometry">
            <mxPoint x="-183" y="498.90999999999997" as="sourcePoint" />
          </mxGeometry>
        </mxCell>
        <mxCell id="8xb7cWls3KUM-lBE9ush-12" style="edgeStyle=orthogonalEdgeStyle;rounded=0;orthogonalLoop=1;jettySize=auto;html=1;exitX=0.857;exitY=0.024;exitDx=0;exitDy=0;entryX=0;entryY=0.5;entryDx=0;entryDy=0;endArrow=none;endFill=0;exitPerimeter=0;" parent="1" source="8xb7cWls3KUM-lBE9ush-93" target="8xb7cWls3KUM-lBE9ush-87" edge="1">
          <mxGeometry relative="1" as="geometry">
            <mxPoint x="-45" y="854" as="sourcePoint" />
            <Array as="points">
              <mxPoint x="33" y="500" />
            </Array>
          </mxGeometry>
        </mxCell>
        <mxCell id="8xb7cWls3KUM-lBE9ush-20" style="edgeStyle=orthogonalEdgeStyle;rounded=0;orthogonalLoop=1;jettySize=auto;html=1;exitX=0.5;exitY=1;exitDx=0;exitDy=0;entryX=0.5;entryY=0;entryDx=0;entryDy=0;endArrow=none;endFill=0;shape=link;" parent="1" source="8xb7cWls3KUM-lBE9ush-21" target="8xb7cWls3KUM-lBE9ush-93" edge="1">
          <mxGeometry relative="1" as="geometry">
            <mxPoint x="115.06" y="690" as="sourcePoint" />
            <mxPoint x="-75" y="854" as="targetPoint" />
          </mxGeometry>
        </mxCell>
        <mxCell id="8xb7cWls3KUM-lBE9ush-107" value="" style="edgeStyle=orthogonalEdgeStyle;rounded=0;orthogonalLoop=1;jettySize=auto;html=1;endArrow=none;endFill=0;" parent="1" source="8xb7cWls3KUM-lBE9ush-21" target="8xb7cWls3KUM-lBE9ush-55" edge="1">
          <mxGeometry relative="1" as="geometry" />
        </mxCell>
        <mxCell id="8xb7cWls3KUM-lBE9ush-21" value="by" style="rhombus;whiteSpace=wrap;html=1;" parent="1" vertex="1">
          <mxGeometry x="-45" y="470" width="70" height="60" as="geometry" />
        </mxCell>
        <mxCell id="8xb7cWls3KUM-lBE9ush-27" value="N" style="text;html=1;align=center;verticalAlign=middle;whiteSpace=wrap;rounded=0;" parent="1" vertex="1">
          <mxGeometry x="414" y="533.07" width="10" height="10.17" as="geometry" />
        </mxCell>
        <mxCell id="8xb7cWls3KUM-lBE9ush-28" value="Status" style="ellipse;whiteSpace=wrap;html=1;" parent="1" vertex="1">
          <mxGeometry x="530" y="554.5400000000001" width="52.5" height="24" as="geometry" />
        </mxCell>
        <mxCell id="8xb7cWls3KUM-lBE9ush-29" value="FinalNote" style="ellipse;whiteSpace=wrap;html=1;" parent="1" vertex="1">
          <mxGeometry x="500" y="584.9999999999999" width="65.25" height="24" as="geometry" />
        </mxCell>
        <mxCell id="8xb7cWls3KUM-lBE9ush-30" value="ReviewDate" style="ellipse;whiteSpace=wrap;html=1;" parent="1" vertex="1">
          <mxGeometry x="508" y="518.1800000000001" width="82.5" height="30" as="geometry" />
        </mxCell>
        <mxCell id="8xb7cWls3KUM-lBE9ush-38" value="Id" style="ellipse;whiteSpace=wrap;html=1;align=center;fontStyle=4" parent="1" vertex="1">
          <mxGeometry x="470" y="506" width="38" height="24" as="geometry" />
        </mxCell>
        <mxCell id="8xb7cWls3KUM-lBE9ush-41" style="edgeStyle=orthogonalEdgeStyle;rounded=0;orthogonalLoop=1;jettySize=auto;html=1;exitX=0;exitY=0.5;exitDx=0;exitDy=0;entryX=1;entryY=0.5;entryDx=0;entryDy=0;endArrow=none;endFill=0;" parent="1" source="8xb7cWls3KUM-lBE9ush-42" target="8xb7cWls3KUM-lBE9ush-57" edge="1">
          <mxGeometry relative="1" as="geometry">
            <Array as="points">
              <mxPoint x="320" y="569.34" />
              <mxPoint x="320" y="569.34" />
            </Array>
          </mxGeometry>
        </mxCell>
        <mxCell id="8xb7cWls3KUM-lBE9ush-42" value="Review" style="rounded=0;whiteSpace=wrap;html=1;" parent="1" vertex="1">
          <mxGeometry x="369.5" y="549" width="119.5" height="35.07" as="geometry" />
        </mxCell>
        <mxCell id="8xb7cWls3KUM-lBE9ush-110" style="edgeStyle=orthogonalEdgeStyle;rounded=0;orthogonalLoop=1;jettySize=auto;html=1;exitX=0.5;exitY=0;exitDx=0;exitDy=0;entryX=0.5;entryY=1;entryDx=0;entryDy=0;endArrow=none;endFill=0;" parent="1" source="8xb7cWls3KUM-lBE9ush-43" target="8xb7cWls3KUM-lBE9ush-51" edge="1">
          <mxGeometry relative="1" as="geometry" />
        </mxCell>
        <mxCell id="8xb7cWls3KUM-lBE9ush-43" value="by" style="rhombus;whiteSpace=wrap;html=1;" parent="1" vertex="1">
          <mxGeometry x="394.25" y="470" width="70" height="60" as="geometry" />
        </mxCell>
        <mxCell id="8xb7cWls3KUM-lBE9ush-44" value="isVerified" style="ellipse;whiteSpace=wrap;html=1;" parent="1" vertex="1">
          <mxGeometry x="-130" y="325.75" width="70" height="35" as="geometry" />
        </mxCell>
        <mxCell id="8xb7cWls3KUM-lBE9ush-51" value="Doctor" style="rounded=0;whiteSpace=wrap;html=1;" parent="1" vertex="1">
          <mxGeometry x="369" y="410" width="120" height="40" as="geometry" />
        </mxCell>
        <mxCell id="8xb7cWls3KUM-lBE9ush-54" style="rounded=0;orthogonalLoop=1;jettySize=auto;html=1;exitX=0;exitY=0;exitDx=0;exitDy=0;entryX=0.5;entryY=1;entryDx=0;entryDy=0;endArrow=none;endFill=0;" parent="1" source="8xb7cWls3KUM-lBE9ush-55" target="8xb7cWls3KUM-lBE9ush-44" edge="1">
          <mxGeometry relative="1" as="geometry" />
        </mxCell>
        <mxCell id="8xb7cWls3KUM-lBE9ush-105" style="edgeStyle=orthogonalEdgeStyle;rounded=0;orthogonalLoop=1;jettySize=auto;html=1;exitX=1;exitY=0.5;exitDx=0;exitDy=0;entryX=0;entryY=0.5;entryDx=0;entryDy=0;endArrow=none;endFill=0;" parent="1" source="8xb7cWls3KUM-lBE9ush-55" target="8xb7cWls3KUM-lBE9ush-60" edge="1">
          <mxGeometry relative="1" as="geometry">
            <Array as="points">
              <mxPoint x="8" y="420" />
            </Array>
          </mxGeometry>
        </mxCell>
        <mxCell id="8xb7cWls3KUM-lBE9ush-55" value="Donor" style="rounded=0;whiteSpace=wrap;html=1;" parent="1" vertex="1">
          <mxGeometry x="-70" y="400" width="120" height="40" as="geometry" />
        </mxCell>
        <mxCell id="8xb7cWls3KUM-lBE9ush-56" value="1" style="text;html=1;align=center;verticalAlign=middle;whiteSpace=wrap;rounded=0;" parent="1" vertex="1">
          <mxGeometry x="415" y="449.99999999999994" width="9" height="20" as="geometry" />
        </mxCell>
        <mxCell id="8xb7cWls3KUM-lBE9ush-57" value="has" style="rhombus;whiteSpace=wrap;html=1;" parent="1" vertex="1">
          <mxGeometry x="177.47" y="538.87" width="70" height="60" as="geometry" />
        </mxCell>
        <mxCell id="8xb7cWls3KUM-lBE9ush-59" value="1" style="text;html=1;align=center;verticalAlign=middle;whiteSpace=wrap;rounded=0;" parent="1" vertex="1">
          <mxGeometry x="356" y="551.34" width="9" height="10" as="geometry" />
        </mxCell>
        <mxCell id="8xb7cWls3KUM-lBE9ush-60" value="has" style="rhombus;whiteSpace=wrap;html=1;" parent="1" vertex="1">
          <mxGeometry x="70" y="390" width="70" height="60" as="geometry" />
        </mxCell>
        <mxCell id="8xb7cWls3KUM-lBE9ush-61" style="rounded=0;orthogonalLoop=1;jettySize=auto;html=1;exitX=0.183;exitY=-0.005;exitDx=0;exitDy=0;entryX=0.5;entryY=1;entryDx=0;entryDy=0;endArrow=none;endFill=0;exitPerimeter=0;dashed=1;" parent="1" source="8xb7cWls3KUM-lBE9ush-67" target="8xb7cWls3KUM-lBE9ush-72" edge="1">
          <mxGeometry relative="1" as="geometry" />
        </mxCell>
        <mxCell id="8xb7cWls3KUM-lBE9ush-62" style="rounded=0;orthogonalLoop=1;jettySize=auto;html=1;exitX=0.5;exitY=0;exitDx=0;exitDy=0;entryX=0.5;entryY=1;entryDx=0;entryDy=0;endArrow=none;endFill=0;" parent="1" source="8xb7cWls3KUM-lBE9ush-67" target="8xb7cWls3KUM-lBE9ush-68" edge="1">
          <mxGeometry relative="1" as="geometry" />
        </mxCell>
        <mxCell id="8xb7cWls3KUM-lBE9ush-63" style="rounded=0;orthogonalLoop=1;jettySize=auto;html=1;exitX=0.75;exitY=0;exitDx=0;exitDy=0;entryX=0.378;entryY=0.954;entryDx=0;entryDy=0;endArrow=none;endFill=0;entryPerimeter=0;" parent="1" source="8xb7cWls3KUM-lBE9ush-67" target="8xb7cWls3KUM-lBE9ush-69" edge="1">
          <mxGeometry relative="1" as="geometry" />
        </mxCell>
        <mxCell id="8xb7cWls3KUM-lBE9ush-64" style="rounded=0;orthogonalLoop=1;jettySize=auto;html=1;exitX=0.935;exitY=0.009;exitDx=0;exitDy=0;entryX=0.5;entryY=1;entryDx=0;entryDy=0;endArrow=none;endFill=0;dashed=1;exitPerimeter=0;" parent="1" source="8xb7cWls3KUM-lBE9ush-67" target="8xb7cWls3KUM-lBE9ush-70" edge="1">
          <mxGeometry relative="1" as="geometry" />
        </mxCell>
        <mxCell id="8xb7cWls3KUM-lBE9ush-65" style="rounded=0;orthogonalLoop=1;jettySize=auto;html=1;exitX=0.351;exitY=0.064;exitDx=0;exitDy=0;entryX=0.5;entryY=1;entryDx=0;entryDy=0;endArrow=none;endFill=0;exitPerimeter=0;dashed=1;" parent="1" source="8xb7cWls3KUM-lBE9ush-67" target="8xb7cWls3KUM-lBE9ush-71" edge="1">
          <mxGeometry relative="1" as="geometry" />
        </mxCell>
        <mxCell id="8xb7cWls3KUM-lBE9ush-66" value="" style="edgeStyle=orthogonalEdgeStyle;rounded=0;orthogonalLoop=1;jettySize=auto;html=1;endArrow=none;endFill=0;shape=link;" parent="1" source="8xb7cWls3KUM-lBE9ush-67" target="8xb7cWls3KUM-lBE9ush-60" edge="1">
          <mxGeometry relative="1" as="geometry" />
        </mxCell>
        <mxCell id="8xb7cWls3KUM-lBE9ush-67" value="&lt;div&gt;&lt;span style=&quot;background-color: initial;&quot;&gt;Suspension&lt;/span&gt;&lt;br&gt;&lt;/div&gt;" style="rounded=0;whiteSpace=wrap;html=1;" parent="1" vertex="1">
          <mxGeometry x="160" y="400.00000000000006" width="104.94" height="40" as="geometry" />
        </mxCell>
        <mxCell id="8xb7cWls3KUM-lBE9ush-68" value="Type" style="ellipse;whiteSpace=wrap;html=1;" parent="1" vertex="1">
          <mxGeometry x="210" y="280" width="60" height="27.5" as="geometry" />
        </mxCell>
        <mxCell id="8xb7cWls3KUM-lBE9ush-69" value="StartDate" style="ellipse;whiteSpace=wrap;html=1;" parent="1" vertex="1">
          <mxGeometry x="237.5" y="310" width="75" height="30" as="geometry" />
        </mxCell>
        <mxCell id="8xb7cWls3KUM-lBE9ush-70" value="EndDate" style="ellipse;whiteSpace=wrap;html=1;" parent="1" vertex="1">
          <mxGeometry x="264.94" y="346.25" width="70" height="27.5" as="geometry" />
        </mxCell>
        <mxCell id="8xb7cWls3KUM-lBE9ush-71" value="Reason" style="ellipse;whiteSpace=wrap;html=1;" parent="1" vertex="1">
          <mxGeometry x="160" y="295.75" width="59.5" height="30" as="geometry" />
        </mxCell>
        <mxCell id="8xb7cWls3KUM-lBE9ush-72" value="Note" style="ellipse;whiteSpace=wrap;html=1;" parent="1" vertex="1">
          <mxGeometry x="140" y="325.75000000000006" width="45" height="24.25" as="geometry" />
        </mxCell>
        <mxCell id="8xb7cWls3KUM-lBE9ush-73" style="rounded=0;orthogonalLoop=1;jettySize=auto;html=1;exitX=0.5;exitY=1;exitDx=0;exitDy=0;entryX=0;entryY=0;entryDx=0;entryDy=0;endArrow=none;endFill=0;" parent="1" source="8xb7cWls3KUM-lBE9ush-74" target="8xb7cWls3KUM-lBE9ush-67" edge="1">
          <mxGeometry relative="1" as="geometry" />
        </mxCell>
        <mxCell id="8xb7cWls3KUM-lBE9ush-74" value="&lt;u&gt;Id&lt;/u&gt;" style="ellipse;whiteSpace=wrap;html=1;" parent="1" vertex="1">
          <mxGeometry x="96" y="350" width="60" height="23.75" as="geometry" />
        </mxCell>
        <mxCell id="8xb7cWls3KUM-lBE9ush-75" style="edgeStyle=orthogonalEdgeStyle;rounded=0;orthogonalLoop=1;jettySize=auto;html=1;exitX=0;exitY=0.5;exitDx=0;exitDy=0;entryX=1;entryY=0.5;entryDx=0;entryDy=0;endArrow=none;endFill=0;shape=link;" parent="1" source="8xb7cWls3KUM-lBE9ush-76" target="8xb7cWls3KUM-lBE9ush-67" edge="1">
          <mxGeometry relative="1" as="geometry" />
        </mxCell>
        <mxCell id="8xb7cWls3KUM-lBE9ush-108" style="edgeStyle=orthogonalEdgeStyle;rounded=0;orthogonalLoop=1;jettySize=auto;html=1;exitX=1;exitY=0.5;exitDx=0;exitDy=0;entryX=0;entryY=0.25;entryDx=0;entryDy=0;endArrow=none;endFill=0;" parent="1" source="8xb7cWls3KUM-lBE9ush-76" target="8xb7cWls3KUM-lBE9ush-51" edge="1">
          <mxGeometry relative="1" as="geometry" />
        </mxCell>
        <mxCell id="8xb7cWls3KUM-lBE9ush-76" value="by" style="rhombus;whiteSpace=wrap;html=1;" parent="1" vertex="1">
          <mxGeometry x="280" y="390" width="70" height="60" as="geometry" />
        </mxCell>
        <mxCell id="8xb7cWls3KUM-lBE9ush-77" value="1" style="text;html=1;align=center;verticalAlign=middle;whiteSpace=wrap;rounded=0;" parent="1" vertex="1">
          <mxGeometry x="356" y="398.42999999999995" width="9" height="20" as="geometry" />
        </mxCell>
        <mxCell id="8xb7cWls3KUM-lBE9ush-78" value="N" style="text;html=1;align=center;verticalAlign=middle;whiteSpace=wrap;rounded=0;" parent="1" vertex="1">
          <mxGeometry x="270" y="403.34000000000003" width="10" height="10.17" as="geometry" />
        </mxCell>
        <mxCell id="8xb7cWls3KUM-lBE9ush-79" value="N" style="text;html=1;align=center;verticalAlign=middle;whiteSpace=wrap;rounded=0;" parent="1" vertex="1">
          <mxGeometry x="146" y="403.34000000000003" width="10" height="10.17" as="geometry" />
        </mxCell>
        <mxCell id="8xb7cWls3KUM-lBE9ush-80" value="1" style="text;html=1;align=center;verticalAlign=middle;whiteSpace=wrap;rounded=0;" parent="1" vertex="1">
          <mxGeometry x="50" y="408.2599999999999" width="10" height="10.17" as="geometry" />
        </mxCell>
        <mxCell id="8xb7cWls3KUM-lBE9ush-83" value="1" style="text;html=1;align=center;verticalAlign=middle;whiteSpace=wrap;rounded=0;" parent="1" vertex="1">
          <mxGeometry x="-25" y="445" width="9" height="10" as="geometry" />
        </mxCell>
        <mxCell id="8xb7cWls3KUM-lBE9ush-86" style="edgeStyle=orthogonalEdgeStyle;rounded=0;orthogonalLoop=1;jettySize=auto;html=1;exitX=1;exitY=0.5;exitDx=0;exitDy=0;entryX=0;entryY=0.75;entryDx=0;entryDy=0;endArrow=none;endFill=0;" parent="1" source="8xb7cWls3KUM-lBE9ush-87" target="8xb7cWls3KUM-lBE9ush-51" edge="1">
          <mxGeometry relative="1" as="geometry">
            <Array as="points">
              <mxPoint x="350" y="500" />
              <mxPoint x="350" y="440" />
            </Array>
          </mxGeometry>
        </mxCell>
        <mxCell id="8xb7cWls3KUM-lBE9ush-87" value="lockedBy" style="rhombus;whiteSpace=wrap;html=1;" parent="1" vertex="1">
          <mxGeometry x="177.47" y="470" width="70" height="60" as="geometry" />
        </mxCell>
        <mxCell id="8xb7cWls3KUM-lBE9ush-88" value="1" style="text;html=1;align=center;verticalAlign=middle;whiteSpace=wrap;rounded=0;" parent="1" vertex="1">
          <mxGeometry x="356" y="425.1700000000001" width="9" height="11.66" as="geometry" />
        </mxCell>
        <mxCell id="8xb7cWls3KUM-lBE9ush-90" style="rounded=0;orthogonalLoop=1;jettySize=auto;html=1;exitX=0;exitY=0.75;exitDx=0;exitDy=0;entryX=1;entryY=0.5;entryDx=0;entryDy=0;endArrow=none;endFill=0;" parent="1" source="8xb7cWls3KUM-lBE9ush-93" target="8xb7cWls3KUM-lBE9ush-94" edge="1">
          <mxGeometry relative="1" as="geometry" />
        </mxCell>
        <mxCell id="8xb7cWls3KUM-lBE9ush-91" style="rounded=0;orthogonalLoop=1;jettySize=auto;html=1;exitX=0.089;exitY=-0.002;exitDx=0;exitDy=0;entryX=0.5;entryY=1;entryDx=0;entryDy=0;endArrow=none;endFill=0;exitPerimeter=0;" parent="1" source="8xb7cWls3KUM-lBE9ush-93" target="8xb7cWls3KUM-lBE9ush-95" edge="1">
          <mxGeometry relative="1" as="geometry" />
        </mxCell>
        <mxCell id="8xb7cWls3KUM-lBE9ush-93" value="Submission" style="rounded=0;whiteSpace=wrap;html=1;" parent="1" vertex="1">
          <mxGeometry x="-70" y="549" width="120" height="40" as="geometry" />
        </mxCell>
        <mxCell id="8xb7cWls3KUM-lBE9ush-94" value="SubmissionDate" style="ellipse;whiteSpace=wrap;html=1;" parent="1" vertex="1">
          <mxGeometry x="-200" y="524.5400000000001" width="100" height="40" as="geometry" />
        </mxCell>
        <mxCell id="8xb7cWls3KUM-lBE9ush-95" value="&lt;u&gt;Id&lt;/u&gt;" style="ellipse;whiteSpace=wrap;html=1;" parent="1" vertex="1">
          <mxGeometry x="-120" y="500.00000000000006" width="70" height="30" as="geometry" />
        </mxCell>
        <mxCell id="8xb7cWls3KUM-lBE9ush-98" style="edgeStyle=orthogonalEdgeStyle;rounded=0;orthogonalLoop=1;jettySize=auto;html=1;exitX=0;exitY=0.5;exitDx=0;exitDy=0;entryX=1;entryY=0.5;entryDx=0;entryDy=0;endArrow=none;endFill=0;shape=link;" parent="1" source="8xb7cWls3KUM-lBE9ush-57" target="8xb7cWls3KUM-lBE9ush-93" edge="1">
          <mxGeometry relative="1" as="geometry">
            <mxPoint x="31" y="831" as="sourcePoint" />
            <mxPoint x="154.06" y="1110.75" as="targetPoint" />
          </mxGeometry>
        </mxCell>
        <mxCell id="8xb7cWls3KUM-lBE9ush-99" value="1" style="text;html=1;align=center;verticalAlign=middle;whiteSpace=wrap;rounded=0;" parent="1" vertex="1">
          <mxGeometry x="51" y="554.54" width="9" height="10" as="geometry" />
        </mxCell>
        <mxCell id="8xb7cWls3KUM-lBE9ush-100" value="N" style="text;html=1;align=center;verticalAlign=middle;whiteSpace=wrap;rounded=0;" parent="1" vertex="1">
          <mxGeometry x="-25" y="536.18" width="9" height="10" as="geometry" />
        </mxCell>
        <mxCell id="8xb7cWls3KUM-lBE9ush-101" value="1" style="text;html=1;align=center;verticalAlign=middle;whiteSpace=wrap;rounded=0;" parent="1" vertex="1">
          <mxGeometry x="21" y="536.18" width="9" height="10" as="geometry" />
        </mxCell>
        <mxCell id="fmtyYkbQ7yF-ID-45xBk-4" style="rounded=0;orthogonalLoop=1;jettySize=auto;html=1;exitX=0.5;exitY=1;exitDx=0;exitDy=0;entryX=0.5;entryY=0;entryDx=0;entryDy=0;endArrow=none;endFill=0;" edge="1" parent="1" source="fmtyYkbQ7yF-ID-45xBk-1" target="8xb7cWls3KUM-lBE9ush-55">
          <mxGeometry relative="1" as="geometry" />
        </mxCell>
        <mxCell id="fmtyYkbQ7yF-ID-45xBk-1" value="DoB" style="ellipse;whiteSpace=wrap;html=1;" vertex="1" parent="1">
          <mxGeometry x="-50" y="325.75" width="59" height="35" as="geometry" />
        </mxCell>
        <mxCell id="fmtyYkbQ7yF-ID-45xBk-3" style="rounded=0;orthogonalLoop=1;jettySize=auto;html=1;exitX=0.5;exitY=1;exitDx=0;exitDy=0;entryX=1;entryY=0;entryDx=0;entryDy=0;endArrow=none;endFill=0;" edge="1" parent="1" source="fmtyYkbQ7yF-ID-45xBk-2" target="8xb7cWls3KUM-lBE9ush-55">
          <mxGeometry relative="1" as="geometry" />
        </mxCell>
        <mxCell id="fmtyYkbQ7yF-ID-45xBk-2" value="PoB" style="ellipse;whiteSpace=wrap;html=1;" vertex="1" parent="1">
          <mxGeometry x="21" y="325.75" width="52.5" height="35" as="geometry" />
        </mxCell>
      </root>
    </mxGraphModel>
  </diagram>
</mxfile>
